<?xml version="1.0" encoding="iso-8859-1"?>
<!-- Uploaded to: SVG Repo, www.svgrepo.com, Generator: SVG Repo Mixer Tools -->
<svg fill="#ffffff" height="100px" width="50px" version="1.1" id="Capa_1" xmlns="http://www.w3.org/2000/svg" xmlns:xlink="http://www.w3.org/1999/xlink" 
	 viewBox="0 0 483.788 483.788" xml:space="preserve">
<g>
	<g>
		<path d="M187,409.041c28.9,17.1,62.7,26.2,96.3,25.9h0.3c10.4-0.1,18.7-8.5,18.6-18.9c-0.2-23.7-0.5-47.4-1-71.1
			c0.4-18.2,0.7-36.4,1.1-54.6c1.1-74,1.7-147.9,0.9-221.7v-0.4c-0.1-10.8-9-19.5-19.8-19.4c-46.2,0.4-92,18.5-125.1,49.6
			c-13.2,12.2-22.6,25.9-27.1,36.6c-2.4,5.2-3.3,9.9-3.4,13.2c0,3.3,1,5.4,3.3,6c8.7,2.3,23.9-14.6,48-33.9
			c25-20.4,56.1-32.2,87.8-34.9c-0.1,13.9-0.2,27.9-0.2,41.8c0.3,91.5,2.1,183,3.4,274.5c-23.7-3.5-46.3-11.9-66-24.6
			c-22.6-14.5-41.5-34.5-54.5-57.8c-3.2-5.7-9.3-9.6-16.3-9.7h-0.5c-14.5-0.1-29.1-0.3-43.7-0.4l-21.9-0.1H56.3h-2.7l-1.4-0.1
			c-0.9,0-1.8-0.3-2.7-0.3c-7-1.4-13-7.2-14.6-14.2c-0.4-1.1-0.2-1.1-0.4-1.6l-0.1-2.7v-0.7v-0.1v-0.9v-10.9l-0.1-21.9l0-43.8v-10.9
			v-5.5c0-1.1,0.1-1.2,0.1-1.8c0.1-0.5,0-0.9,0.1-1.4c0.2-1.8,0.7-3.5,1.4-5.2c0.8-1.6,1.7-3.2,2.8-4.7c2.3-2.8,5.4-5,8.8-6.2
			c0.8-0.4,1.8-0.5,2.5-0.7c0.6,0,0.3-0.2,2.7-0.3l1.4-0.1h0.2h0.2h2.7h5.5c14.6,0.1,29.1,0.3,43.7,0.4c7.8,0.1,20.1-3.4,24-5.8
			c7.7-4.9-2.3-9-17.2-12.1c-12.3-2.6-25.3-4.8-38.7-6.7c-3.4-0.4-6.8-0.9-10.2-1.4l-5.2-0.6l-2.6-0.3l-1.3-0.2l-0.7-0.1h-0.3H54
			h-0.1h-0.4l-2.6-0.2l-1.3-0.1l-1.7,0.1l-3.4,0.2l-3.2,0.5c-4.2,0.8-8.4,2.2-12.4,4.2c-7.9,4-14.9,10.5-19.6,18.6
			c-2.4,4-4.1,8.6-5.3,13.2c-1.2,4.6-1.4,10.1-1.5,13.3c-0.8,14.9-1.3,30.1-1.6,45.2l-0.9,47.5l0.1,2.9v0.7l0.1,1.1l0.3,2.3
			c0.4,3.2,1.1,5.5,1.8,8.2c1.6,5.2,4,10.1,6.9,14.6c6.1,9,14.8,16.2,25,20.2c5.1,2.1,10.5,3.3,15.9,3.8l4,0.2l2.9,0.1l5.8,0.1
			l23.4,0.5l36.7,0.7C138.9,372.041,161,393.741,187,409.041z"/>
		<path d="M343,285.641c-2.9,4.5-2.7,10.9,4,17c6.1,5.6,13,7.3,17.5,4.2c8.1-5.6,16.3-11.2,23-18.2c7.1-7.4,13.7-15.4,20.2-23.3
			c1.7,2.2,3.3,4.4,5.1,6.5c11.9,14.3,24.7,27.8,40.7,37.9c4.5,2.9,10.9,2.7,17-4c5.6-6.1,7.3-13,4.2-17.5
			c-5.6-8.1-11.2-16.3-18.2-23c-7.5-7.2-15.5-13.8-23.5-20.4c19.3-13,32.8-32,50.4-46.9c1-0.8-0.1-4.7-1.4-6.9
			c-2.6-4.3-6.6-6.1-10.5-6.6c-12.9-1.7-22.9,1.9-30.6,8c-10.2,8-20.7,15.6-30.5,24c-12.8-17.5-30.6-30.5-44.5-47
			c-0.8-1-4.7,0.1-6.9,1.4c-4.3,2.6-6.1,6.6-6.6,10.5c-1.7,12.9,1.9,22.9,8,30.6c8,10.2,15.6,20.7,24,30.4c-1.1,0.9-2.2,1.7-3.3,2.6
			C366.7,256.941,353.2,269.641,343,285.641z"/>
	</g>
</g>
</svg>